<svg xmlns="http://www.w3.org/2000/svg" width="15.792" height="14.285" viewBox="0 0 15.792 14.285">
  <g id="account-user" transform="translate(-13.998 -16)">
    <path id="Path_29" data-name="Path 29" d="M15.5,35.965A8.1,8.1,0,0,1,17.954,35a6.006,6.006,0,0,0,1.775.481,11.745,11.745,0,0,1,1.212-.367,4.147,4.147,0,0,1-.641-1.1,4.483,4.483,0,0,1-2.132-.584,9.516,9.516,0,0,0-3.842,1.511.764.764,0,0,0-.327.583V37.74a.752.752,0,0,0,.751.791h1.883V38.1a1.869,1.869,0,0,1,.408-1.069H15.5Z" transform="translate(0 -10.877)" fill="#fff"/>
    <path id="Path_30" data-name="Path 30" d="M25.642,21.992c-.01-.116-.015-.234-.015-.353a4.114,4.114,0,0,1,.166-1.149,1.5,1.5,0,1,1,1.53-2.183,4.114,4.114,0,0,1,1.359-.656,3.006,3.006,0,1,0-3.04,4.34Z" transform="translate(-5.611)" fill="#fff"/>
    <path id="Path_31" data-name="Path 31" d="M35.731,41.9a8.451,8.451,0,0,0-3.279-1.374,4.477,4.477,0,0,1-4.276-.091,9.516,9.516,0,0,0-3.842,1.511.764.764,0,0,0-.327.583V44.74a.753.753,0,0,0,.751.791H35.284a.752.752,0,0,0,.751-.712V42.505a.762.762,0,0,0-.3-.605Zm-1.2,2.132h-9.02V42.965A8.1,8.1,0,0,1,27.961,42a6,6,0,0,0,2.437.52,5.923,5.923,0,0,0,2.2-.42,7.073,7.073,0,0,1,1.929.794Z" transform="translate(-6.245 -15.246)" fill="#fff"/>
    <path id="Path_32" data-name="Path 32" d="M33,26.008A3.008,3.008,0,1,0,36.008,23,3.008,3.008,0,0,0,33,26.008Zm3.008-1.5a1.5,1.5,0,1,1,0-.008Z" transform="translate(-11.857 -4.368)" fill="#fff"/>
  </g>
</svg>
