<svg xmlns="http://www.w3.org/2000/svg" width="11.372" height="19.029" viewBox="0 0 11.372 19.029">
  <g id="superhost" transform="translate(-2.866 -3.882)">
    <path id="Path_38" data-name="Path 38" d="M13.177,11.706a1,1,0,0,1-.449.761L8.983,15.44a.673.673,0,0,1-.856,0L4.38,12.472c-.34-.3-.454-.5-.454-.765v-6.2a.7.7,0,0,1,.56-.563h8.13a.7.7,0,0,1,.561.563c0,.608,0,1.375,0,3.02V8.66c0,1.79,0,2.479,0,3.046m.561-3.046V8.53c0-1.645,0-2.412,0-3.02a1.241,1.241,0,0,0-1.121-1.127H4.487A1.241,1.241,0,0,0,3.366,5.509v6.2a1.521,1.521,0,0,0,.657,1.2L7.78,15.883a1.23,1.23,0,0,0,1.551,0l3.74-2.969a1.547,1.547,0,0,0,.667-1.207c0-.567,0-1.256,0-3.047M8.552,21.848a2.254,2.254,0,1,1,2.243-2.254,2.248,2.248,0,0,1-2.243,2.254m0-5.071a2.817,2.817,0,1,0,2.8,2.817,2.81,2.81,0,0,0-2.8-2.817" transform="translate(0 0)" fill="#fff" stroke="#fff" stroke-width="1"/>
  </g>
</svg>
