<svg xmlns="http://www.w3.org/2000/svg" width="28.052" height="30" viewBox="0 0 28.052 30">
  <path id="air_conditioning" d="M17,1V5.03l4.026-2.324,1,1.732L17,7.339v6.928L23,10.8V5h2V9.648l3.49-2.014,1,1.732L26,11.381l4.026,2.325-1,1.732L24,12.535,18,16l6,3.465,5.026-2.9,1,1.732L26,20.618l3.49,2.016-1,1.732L25,22.351V27H23V21.2l-6-3.465V24.66l5.026,2.9-1,1.732L17,26.97V31H15V26.969l-4.026,2.325-1-1.732L15,24.66V17.731L9,21.195V27H7V22.35L3.51,24.366l-1-1.732L6,20.618,1.974,18.294l1-1.732L8,19.463,14,16,8,12.535l-5.025,2.9-1-1.732L6,11.38,2.51,9.366l1-1.732L7,9.648V5H9v5.8l6,3.464V7.339l-5.026-2.9,1-1.732L15,5.03V1Z" transform="translate(-1.974 -1)" fill="#f99428"/>
</svg>
